<?xml version="1.0" encoding="UTF-8"?>
<svg width="200px" height="200px" viewBox="0 0 200 200" version="1.1" xmlns="http://www.w3.org/2000/svg" xmlns:xlink="http://www.w3.org/1999/xlink">
    <title>200px</title>
    <g id="200px" stroke="none" stroke-width="1" fill="none" fill-rule="evenodd">
        <g id="Group" transform="translate(27.000000, 0.000000)">
            <path d="M151.794271,115.894955 L83.6606808,67.7999856 C79.1978534,64.6498382 73.0455854,65.7412586 69.919496,70.2388654 C66.7934066,74.7364721 67.8769224,80.9356532 72.3397498,84.0862345 L128.937514,124.038296 L63.890394,169.955199 L63.890394,146.287216 C63.890394,140.795831 59.4732155,136.344658 54.0241992,136.344658 L19.7323896,136.344658 L19.7323896,111.731501 L45.2234329,111.731501 L17.054607,91.8472533 L9.86619479,91.8472533 C4.41717852,91.8472533 0,96.2984259 0,101.789377 L0,146.287216 C0,151.778167 4.41717852,156.229339 9.86619479,156.229339 L44.1580044,156.229339 L44.1580044,189.057876 C44.1580044,192.766102 46.2053152,196.165779 49.4692127,197.877334 C50.9024163,198.62896 52.4652457,199 54.0233379,199 C56.0129416,199 57.9947936,198.39462 59.6846647,197.201218 L151.794271,132.181204 C154.430711,130.320799 156,127.281312 156,124.038296 C156,120.795281 154.430711,117.756228 151.794271,115.894955" id="Fill-9" fill="#F4B927"></path>
            <path d="M146.133805,42.7381794 L111.842857,42.7381794 L111.841996,9.93456761 C111.841996,6.22964012 109.794685,2.83258933 106.530357,1.12192232 C103.267751,-0.587443802 99.3281637,-0.329000826 96.3153353,1.79795017 L4.2057293,66.767739 C1.56928912,68.6267071 0,71.6638457 0,74.9043564 C0,78.1448671 1.56928912,81.181572 4.2057293,83.0409738 L79.573811,136.20174 C81.2964115,137.416335 83.2705118,138 85.2256634,138 C88.3349575,138 91.395588,136.523493 93.3149957,133.764744 C96.4415158,129.270612 95.3575694,123.075352 90.8947419,119.927638 L27.0624857,74.9043564 L92.109606,29.0229229 L92.1108979,52.6726233 C92.1108979,58.159333 96.5280765,62.6070672 101.976662,62.6070672 L136.26761,62.6070672 L136.26761,87.2012119 L110.776136,87.2012119 L138.945393,107.0701 L146.133805,107.0701 C151.582391,107.0701 156,102.621932 156,97.1352222 L156,52.6726233 C156,47.1859137 151.582391,42.7381794 146.133805,42.7381794" id="Fill-10" fill="#263A74"></path>
        </g>
    </g>
</svg>