<?xml version="1.0" encoding="UTF-8"?>
<svg width="31px" height="39px" viewBox="0 0 31 39" version="1.1" xmlns="http://www.w3.org/2000/svg" xmlns:xlink="http://www.w3.org/1999/xlink">
    <title>mdpi/Group 10</title>
    <g id="APP-DESIGN" stroke="none" stroke-width="1" fill="none" fill-rule="evenodd">
        <g id="StrikeApp-White" transform="translate(-4.000000, 0.000000)" fill="#FFFFFF">
            <g id="Group-10" transform="translate(4.000000, 0.000000)">
                <path d="M30.1642461,22.753901 L16.6248789,13.3518769 C15.738035,12.7360586 14.5154689,12.949419 13.8942588,13.8286504 C13.2730488,14.7078818 13.4883628,15.9197517 14.3752067,16.5356549 L25.6221984,24.3458324 L12.696168,33.3220689 L12.696168,28.6952452 C12.696168,27.6217413 11.8183954,26.7515873 10.7355781,26.7515873 L3.92117998,26.7515873 L3.92117998,21.9399926 L8.98670782,21.9399926 L3.38905652,18.0528465 L1.96058999,18.0528465 C0.877772655,18.0528465 0,18.9230005 0,19.9964196 L0,28.6952452 C0,29.7686642 0.877772655,30.6388182 1.96058999,30.6388182 L8.77498806,30.6388182 L8.77498806,37.0564269 C8.77498806,37.7813432 9.18182546,38.4459417 9.83042046,38.7805315 C10.1152238,38.927466 10.425786,39 10.7354069,39 C11.1307769,39 11.5246064,38.881655 11.8604141,38.6483583 L30.1642461,25.937679 C30.6881541,25.5739907 31,24.9798054 31,24.3458324 C31,23.7118594 30.6881541,23.1177589 30.1642461,22.753901" id="Fill-9"></path>
                <path d="M29.03941,8.36181772 L22.2251831,8.36181772 L22.2250119,1.94371975 C22.2250119,1.21884263 21.8181745,0.55420226 21.169494,0.219506541 C20.5211557,-0.114934657 19.7382889,-0.0643697269 19.1395859,0.35177286 L0.8357539,13.0632533 C0.311845916,13.4269644 0,14.0211872 0,14.6552002 C0,15.2892131 0.311845916,15.883351 0.8357539,16.2471471 L15.8127445,26.6481665 C16.1550561,26.8858047 16.5473453,27 16.935869,27 C17.5537415,27 18.1619438,26.7111181 18.5433645,26.171363 C19.1646602,25.2920762 18.9492606,24.0799601 18.0624167,23.464103 L5.37780164,14.6552002 L18.303832,5.67839797 L18.3040887,10.3055133 C18.3040887,11.3789999 19.1818613,12.2492088 20.2645931,12.2492088 L27.07882,12.2492088 L27.07882,17.0611067 L22.0132066,17.0611067 L27.6109435,20.9484978 L29.03941,20.9484978 C30.1221418,20.9484978 31,20.0782041 31,19.0047174 L31,10.3055133 C31,9.23202659 30.1221418,8.36181772 29.03941,8.36181772" id="Fill-10"></path>
            </g>
        </g>
    </g>
</svg>